<svg width="203" height="24" fill="none" xmlns="http://www.w3.org/2000/svg"><path fill-rule="evenodd" clip-rule="evenodd" d="m43 23-1 1h-9l-1-1v-1h2V11l-1-1h-1V9h2V8a239 239 0 0 0-2-3l2-4 4-1 3 1 2 1v4l-2 1-2-1-1-2V2l-1-1-1 1v1l1 1v2a37 37 0 0 0 2 2l1 1h3v1l-2 1h-1v11h3v1Zm-32 0-4 1-3-1-3-2-1-5 1-4a7 7 0 0 1 7-4l3 1 2 2 1 2-1 2-2 1-2-1v-3l-1-1-1-1-1 1v6l2 2 2 1 2-1 1-1h1a6 6 0 0 1-3 5Zm16 0-4 1-4-1-3-3-1-4a7 7 0 0 1 4-6l4-2 4 1 3 3 1 4a7 7 0 0 1-4 7Zm-3-1h-1l-1-2a26 26 0 0 1-1-7v-2l1-1 1 1 1 1a25 25 0 0 1 1 9l-1 1Zm29 2 1-1v-1h-2l-1-1V11h2l1-1V9h-3V8l-1-1a37 37 0 0 1-2-3V2l1-1v1h1v4l2 1 2-1 1-2a4 4 0 0 0-3-3l-2-1-5 1-1 4a4 4 0 0 0 1 2 255 255 0 0 1 0 2h-2v1h1l1 1v11h-1v2h9Zm13-1-4 1-4-1-2-3-1-4 1-4 2-3 5-1 3 1 3 3 1 3-1 1h-8l1 3 3 1 2-1 1-1h1v-1 4l-3 2Zm-6-8a13 13 0 0 1 1-3v-1l1-1 1 1v4h-3Zm22 8-4 1-4-1-3-3-1-4 1-4 3-3 4-1 4 1 2 3 1 3v1h-9l1 3 3 1 3-1 1-1 1-1v1l-1 3-2 2Zm-6-8a13 13 0 0 1 0-3l1-1 1-1 1 1v3l-1 1h-2Zm20 8-1 1h-8l-1-1v-1h1V12h-1v-1l1-1 4-1h2v3-1l2-2 2-1 2 1 1 3-1 3-2 1-1-1-1-1v-2h-1l-1 1v9h3v1Zm13 1 4-1a7 7 0 0 0 4-7l-1-4-3-3-4-1-4 2a8 8 0 0 0-4 6l1 4 2 3 5 1Zm0-2h1l1-1v-2a23 23 0 0 0-1-7l-1-1-1-1-1 1v2a26 26 0 0 0 1 7l1 2Zm21 2 2-1 1-1 1-1-1-1v1h-1v-8l-2-3-4-2-4 1-3 2-1 2 1 1 2 1 2-1 1-2v-2h2v6h-1l-6 1-1 3 1 3 3 1 3-1 1-1 1 1 3 1Zm-6-3h2v-4h-2v4Zm17 3 5-1 1-4v-2l-2-2-4-2h-1l-1-1v-2h2l2 1 2 2v1h1l1-1-1-1V9h-1a35 35 0 0 0-2 0 5 5 0 0 0-3-1l-3 1-2 2-1 3 1 2 2 2 3 1 1 1h1v2l-1 1-2-1-1-1-2-2v-1h-1l-1 1v1l1 3v1h1l1-1h2l1 1h1Zm16-1-3 1-4-1-1-4v-8l-1-1V9h2V8l3-2 1-1h1v4h4v1l-1 1h-3v9l2 1v-1h1v-1h1l-1 3-1 1Zm10 1 4-1 2-2 1-3v-1 1h-1l-1 1-2 1-4-1-1-3h9v-4l-3-3-3-1-5 1-2 3-1 4 1 4 2 3 4 1Zm-2-10v1h3v-4l-1-1-1 1-1 1v2Zm19 10 1-1v-1h-2V12h1v2l1 1 2 1 2-1V9l-3-1-2 1-1 2v1l-1-3h-1l-5 1-1 1 1 1 1 1v8l-1 1h-1v1h1v1h8Zm17-1-4 1a6 6 0 0 1-3-1h-1l-1 1h-1v-1l-1-3v-1l1-1 1 1 2 2 1 1 2 1 1-1v-2h-1l-2-1-3-1-1-2-1-2a5 5 0 0 1 3-5 7 7 0 0 1 5 0h2a33 33 0 0 1 1 0h1v5h-1v-1l-3-2-2-1h-1v2l1 1h1l4 2 1 2 1 2-2 4Z" fill="#555"/></svg>