<svg width="423" height="409" fill="none" xmlns="http://www.w3.org/2000/svg"><path fill-rule="evenodd" clip-rule="evenodd" d="M377 354c-18-31-41-60-64-87 7 2 15 1 22-3 6-3 10-9 13-16 0-1 3-11 5-10a338 338 0 0 0 10 55l14 61Zm-75-105c-5 0-9-7-12-10 5 0 28-7 30-1 5 8-14 11-18 11ZM191 81c0 3 0 14-5 11-3-3-4-13-5-16-2-7-5-15-5-22 1-14 9-5 11 3 3 7 4 16 4 24Zm35 58c6-3 3 4 1 7-6 9-7-2-1-7Zm-13-31c-1-6-1-15 1-22 2-5 6-9 9-3 3 5-2 19-4 24s-5 8-6 1Zm-25 2c1 13-10 18-10 3 0-9 8-15 10-3Zm23 77c0 5-11 23-11 13-1-3 10-18 11-13Zm-32-18c-4 2-14 11-18 9-7-3 0-10 3-12s12-7 16-7c8 2 3 7-1 10Zm-57-76c-9 4-13-7-15-14-1-4-6-13-1-16 9-6 19 23 16 30Zm31 1-4-13-5-14c2-7 8-4 11 1 3 6 7 17 7 23-1 6-6 12-9 3Zm-17-47c-3-7 3-14 9-5 7 10-4 20-9 5Zm13 138c1 7-24 18-29 15-7-5 8-10 12-12 3-2 16-11 17-3Zm-43-11-18 5c-9 2-9-3-2-8 5-5 16-6 23-9 5-2 21-14 25-10 8 8-22 21-28 22Zm2 28c0 10-25 13-31 14 4-3 29-27 31-14Zm-48-49c-18 0 0-13 6-15 4-2 14-6 18-2 11 9-20 17-24 17Zm2-35c0-6 29-15 31-10 1 5-30 23-31 10Zm41 7c12-8 27 0 10 9-3 2-12 6-16 4-5-4 3-11 6-13Zm316 27c-3-5-7-12-11-8-2 2-4 10-5 13-5 10-9 21-18 28-6 4-25 10-20-2 4-10 17-20 26-27 3-4 12-11 14-16 2-4-2-14-8-11-3 0-4 9-5 11-1 4-4 7-7 11-4 5-9 12-15 15-8 2-11-2-7-9s13-12 19-17c3-3 11-12 9-16-4-9-11 4-13 7-2 2-13 16-16 14-4-4 5-16 7-19 3-6 5-6 0-9-2-2-7-3-10-3-7 1-14 8-21 9-3 1-13 1-15 5-1 7 29 24 13 28-12 3-24-16-34-8-16 12 9 19 19 22 4 1 19 2 17 9s-14 5-19 5l-24-9c-3-1-11-6-14-5-4 2-8 16-6 20 3 4 18 3 23 3 8 0 19 0 26 5 8 6-2 7-7 7-12-1-24-5-36-7l-14-3c-6 1-5 1-3 6 6 12 12 13 24 14 6 0 30-3 32 4-6 5-20 3-28 2-5 0-13 2-18-1-6-3-14-16-18-22l-25-26c9 1 18 4 28 2 11-3 21-10 23-22l-1-12v-4c-1-6 0-8-4-4-5 5-8 16-16 18s-4-4 0-8c9-9 18-18 19-31 1-8 1-16-1-24-1-7-2-7-5-1-5 13-13 24-24 32-2 2-7 6-10 4s-1-6 0-9l6-19c4-8 9-19 10-28 0-6-5-9-9-12l-13-14c-3-4-5-9-9-12-6-3-5 1-5 6 1 4 6 40-3 38-8-2-5-36-6-43-1-10-15-9-24-11l-12-3-5-3c-5 2 12 17 8 23-8 9-15-15-17-19l-6-12c-4-4-4-3-10-2-5 2-19 2-23 6-4 3 1 6 4 9s11 13 4 15c-2 1-12-7-14-8-6-4-4-3-9-2l-15 5c-7 2-8 3-3 8s13 8 16 15c1 3 0 7-4 7s-6-6-8-9c-2-4-6-13-11-14-3-1-7 3-10 5-1 0-8 3-9 5s8 7 10 10c6 7 12 15 14 23 2 13-13-3-16-7-2-4-11-27-18-25-2 1-4 6-5 8l-8 4-10 5-5 3-2 1c-4 3-5 8-9 12-1 1-8 5-7 7 0 2 32 4 37 4 3 1 18 0 20 4 2 3-1 4-4 6l-25 4c-5 1-28 3-31 8-3 6 1 10 5 11l16-2c4-1 27-6 28-1 2 6-26 11-29 12-5 1-14 1-19 4-4 2-3 3-1 7 4 14 5 11 17 8 5-1 11-4 15-1 6 3 6 7 1 10l-14 2-13 1H2c-5 3 7 20 12 21l8-2 26-4c5-1 27-7 23 4-2 7-19 10-24 12l-15 4c-5 2-8 1-5 6 3 6 23 23 29 22 6 0 4-3 9 1l6 5c7 6 15 15 24 17 21 3 50-24 63-37 3-3 13-16 18-13s-4 15-5 17c-11 13-23 25-38 32-4 1-15 3-19 6s0 4 4 7c9 5 20 13 30 10 14-4 21-19 29-30 4-6 24-36 24-13 0 12-7 25-15 33-1 1-11 6-10 7 0 2 6 3 7 3 10 2 40 5 44-8 3-9-1-23-2-32 0-3-2-7 2-8 5-1 9 17 10 20 1 5 0 11-3 17-1 3-3 5 0 6 2 0 9-7 10-8 5-6 6-12 5-20-1-20-11-40-22-57 14 14 26 28 38 43l9 11 14 15c-2 0-13-3-13 0-1 3 9 7 11 8 9 5 13 5 20 14 17 21 33 44 49 66l23 34 8 19c2 4 4 17 10 19 6 1 5-6 3-9l-7-23-10-38a969 969 0 0 1-18-80c-1-7-1-15-3-22 8 7 6 19 19 20 10 1 17-7 22-14 5-6 12-15 13-22 1-9-7-3-12-1-4 2-14 7-17 4-4-5 11-11 14-13 6-4 13-9 18-15 1-2 9-27 1-24l-4 5-14 16c-5 6-17 18-27 16 4-12 20-18 28-25 6-5 10-10 14-17 1-3 5-12 3-15Z" fill="#02362C"/></svg>