<svg width="314" height="287" fill="none" xmlns="http://www.w3.org/2000/svg"><path fill-rule="evenodd" clip-rule="evenodd" d="m237 137 7 4c-5-3-13-3-19-4l-17-4s-12-4-8-6c12-7 26 10 37 10Zm-79-53c2 6 11 31 2 33-7 2-13-14-14-19l-1-26c5 4 10 6 13 12ZM68 243l-11 13 13-15-2 2ZM304 43c-2-3-9 0-11 1-6 1-13 2-18 0-5-1 3-9 4-12 1-2 2-8 1-10-3-5-9 1-13 3-4 3-6 5-5-1 0-6 7-16 0-22-5-5-14 4-18 8-6 7-9 14-10 24-1 2-3 14-5 12-5-5-1-14-5-20l-6-9c-2-3-3-10-8-11-4 0-6 3-6 6-2 6-1 12-1 18 0 5-3 9-2 14l6 23c0 2 1 13-3 11-3-1-3-12-3-14 0-4 0-8-3-12l-5-5c-4-5-3-13-6-19-3-5-9-17-15-18-8-1-5 10-5 14 1 6 2 11 1 16 0 4 0 8 2 13 3 8 8 15 12 23v-1c2 5 4 10 4 15 0 9-3 5-6-1l-10-27c-2-3-3-6-6-8-2-2-4-1-6-2-5-3-24-36-32-26-5 5 6 16 8 20 4 7 8 11 7 18-2-2-5-1-7-2-2-2-2-6-4-9-3-7-6-14-11-20-14-18-11 10-10 19l1 6c1 6-1 6-1 11-2 8 8 19 13 25 1 1 24 30 14 30-5 0-14-15-16-19-4-7-6-21-14-25h-7c-5-3-8-11-12-14-8-8-17-7-11 5l6 14c1 6 7 10 10 15 2 4-2 2-1 7 0 5 7 10 10 12 4 4 25 15 21 22-4 6-16-3-19-6-8-7-11-17-15-27-3-4-5-10-9-13-3-4-6-4-10-6-5-2-24-12-23 1 0 8 12 12 13 20-5-2-16-13-22-7-6 5 6 17 9 21 3 3 18 15 18 20s-6 3-9 2c-6-1-55-13-54-3 0 8 19 5 21 10 1 1-1 2-1 4-2 6 0 9 7 9-6 15 15 7 22 5 4-2 25-9 26 1 1 3-5 9-6 12-2 7 3 11 9 8 4-1 8-5 11-8 2-2 4-9 7-9 0 10 6 5 12 0 4-3 15-13 22-9-5 7-12 12-18 19l-19 21c-14 13-27 27-38 42l-18 20c-3 3-17 13-12 18 7 6 18-17 23-19l68-76c-1 3 0 12 4 11-1 3-4 6-3 9 1 6 4 1 6 1 4 1 1 8 0 11-3 13-4 28-5 41 0 8 6 29 17 20 5-5 6-16 6-22 0-4-2-15 1-18 5 2 10 13 13 17 6 8 11 13 22 14 25 1-5-28-2-29 2-2 17 11 19 12 4 4 17 12 22 5 4-6-6-15-9-19l-8-10-9-7c-3-2-3-6-6-9l-12-9c-6-5-15-11-16-20 15 2 24 18 34 27 5 4 11 10 18 9 3-1 0-2 4-2l3 1 17 5c4 1 16 5 19 2 6-7-20-23-24-26l-11-8c-3-3-4-6-8-8-5-3-11-4-17-5-7-3-13-6-19-11-3-2-9-6-8-10 2-5 12 2 15 3 8 5 15 12 25 15 11 3 16 13 25 18 4 2 6 2 9 1h11c4 1 25 8 23-2 0-3-5-4-7-5l-15-9c-3-2-7-3-10-6-3-2-3-5-7-6-5-3-12-2-16-5l-12-10c-4-2-25-10-25-13 2-7 25 6 27 7 12 7 23 15 35 21 4 2 7 1 11 2l15 5c4 1 15 4 13-3-2-5-11-10-15-13l-14-10-4-2c-2-2-1-6-3-9 2 3 5 4 9 4l4-1 11 1c5 1 31 0 18-9-6-4-12-7-19-9-5-2-11-4-15-7-5-4-5-6-12-6-6-1-15-1-20-6-10-9 24-3 27-2 8 2 16 3 23 2 9-2 16-6 25-7 3 0 16 1 16-6 0-6-14-6-18-7l-13-2-9-5c-10-4-18 1-27 1-5-1-8-3-2-6 2-2 7-2 10-3l15-5c7-2 45-14 35-26Z" fill="#89B99A"/></svg>